<svg width="64" height="64" viewBox="0 0 64 64" fill="none" xmlns="http://www.w3.org/2000/svg">
  <rect width="64" height="64" rx="16" fill="#F97316"/>
  <path d="M20 38C20 36.3431 21.3431 35 23 35H41C42.6569 35 44 36.3431 44 38V38C44 39.6569 42.6569 41 41 41H23C21.3431 41 20 39.6569 20 38V38Z" fill="white"/>
  <path d="M16 25C16 22.7909 17.7909 21 20 21H44C46.2091 21 48 22.7909 48 25V25C48 27.2091 46.2091 29 44 29H20C17.7909 29 16 27.2091 16 25V25Z" fill="white"/>
  <path d="M26 48C26 46.3431 27.3431 45 29 45H35C36.6569 45 38 46.3431 38 48V48C38 49.6569 36.6569 51 35 51H29C27.3431 51 26 49.6569 26 48V48Z" fill="white"/>
</svg>